# xmcd
# Copyright (C) 1995-1998 Ti Kan
#
# Track frame offsets:
#       150
#       12890
#       29402
#       43213
#       57884
#       73482
#       86470
#       94660
#       111402
#       128583
#       146271
#       164285
#       178474
#       191364
#       208548
#
# Disc length: 2935 seconds
#
# Revision: 0
# Processed by: cddbd v1.5.2PL0 Copyright (c) Steve Scherf et al.
# Submitted via: CD-Import v1.0
#
DISCID=d40b750f
DTITLE=Plankton - Rätselkönig
DYEAR=2009
DGENRE=
TTITLE0=Alli Warted
TTITLE1=Scheissnatur
TTITLE2=Taxi
TTITLE3=Madam Giraff
TTITLE4=Für Kein Vorteil
TTITLE5=Hinder De Berge
TTITLE6=De Letschti Verchäufer
TTITLE7=Faschwievonelei
TTITLE8=Jagdlied
TTITLE9=Uf Mim Sofa
TTITLE10=Bitte Nid Ich
TTITLE11=Tête-A-Tête
TTITLE12=Müede Socke
TTITLE13=Muure
TTITLE14=Alti Rocker Vertriibe
EXTD=
EXTT0=
EXTT1=
EXTT2=
EXTT3=
EXTT4=
EXTT5=
EXTT6=
EXTT7=
EXTT8=
EXTT9=
EXTT10=
EXTT11=
EXTT12=
EXTT13=
EXTT14=
PLAYORDER=
